<svg width="222" height="18" viewBox="0 0 222 18" fill="none" xmlns="http://www.w3.org/2000/svg">
<path d="M10.6459 0.760742H0V3.87165L2.4245 3.87298C3.79515 3.89604 4.23104 4.0614 5.57581 4.28706C5.69784 4.30745 5.73933 4.28573 5.76618 4.17844C5.84965 3.84416 6.02928 3.5591 6.33777 3.34585C6.77562 3.04261 7.29351 2.95704 7.82215 2.92335C8.64366 2.87015 9.46126 2.95483 10.2798 3.0067C10.9949 3.05103 11.7115 3.08871 12.4286 3.10202C12.9533 3.11044 13.4697 3.03684 13.9583 2.84621C14.0633 2.80498 14.1638 2.75577 14.2766 2.70611C14.2859 2.73981 14.2927 2.75089 14.2883 2.75665C14.278 2.78104 14.2668 2.80498 14.2536 2.82803C13.9398 3.33964 13.4604 3.67525 12.8605 3.88007C12.2675 4.08401 11.6417 4.14829 11.0154 4.21081C10.5268 4.2578 10.0353 4.31233 9.55352 4.40055C8.90529 4.51848 8.62364 5.0301 8.88528 5.57585C9.11469 6.05465 9.37389 6.52193 9.5911 7.00428C9.78977 7.44363 9.9362 7.89983 9.88495 8.38484C9.8664 8.56262 9.8503 8.74483 9.79514 8.91596C9.74437 9.07157 9.74144 9.21655 9.7844 9.36728C9.95231 9.96933 10.1105 10.5754 10.2959 11.1726C10.3736 11.4284 10.4902 11.6784 10.622 11.916C10.7157 12.0863 10.8812 12.2237 10.9857 12.3913C11.2351 12.7885 11.1804 13.207 11.0272 13.6162C10.7348 14.3996 10.1549 14.9631 9.3324 15.3249C8.74421 15.5833 8.05303 15.5496 7.61811 14.9813C7.4707 14.7893 7.30132 14.6022 7.05043 14.5202C6.7351 14.4165 6.41294 14.3318 6.08834 14.2533C5.65098 14.1482 5.20094 14.0795 4.77041 13.9567C4.18662 13.7887 3.68337 13.4872 3.23381 13.1131C3.15863 13.0514 3.0942 13.0333 2.98682 13.0732C2.18142 13.3724 1.43117 13.7621 0.721443 14.2139C0.576471 14.3056 0.476894 14.3681 0.408069 14.4103C0.374389 14.4409 0.263098 14.5264 0 14.7179V17.1244H10.6713C17.4279 17.1244 21.1132 13.4518 21.1132 8.73286C21.1132 4.38681 17.8374 0.760742 10.6459 0.760742Z" fill="black"/>
<path d="M31.1403 4.85679L28.3404 10.6508H34.0085L31.1403 4.85679ZM35.6837 14.0689H26.6652L25.3575 16.7578H19.873L27.6292 1.25156H34.8573L42.8664 16.7578H37.0143L35.6837 14.0689Z" fill="black"/>
<path d="M31.1403 4.85679L28.3404 10.6508H34.0085L31.1403 4.85679ZM35.6837 14.0689H26.6652L25.3575 16.7578H19.873L27.6292 1.25156H34.8573L42.8664 16.7578H37.0143L35.6837 14.0689Z" fill="black"/>
<path d="M52.6461 17.0289C46.3279 17.0289 43.1687 15.2853 43.1687 11.7975V11.61H49.0896C49.2273 12.9582 50.4813 13.6316 52.8531 13.6316H52.9907C54.4893 13.6316 55.4918 13.4826 55.9966 13.1834C56.5013 12.8846 56.7536 12.4922 56.7536 12.0059C56.7536 11.5475 56.5242 11.2003 56.0654 10.964C55.6066 10.7277 54.7192 10.5961 53.4037 10.5677L51.0626 10.5056C45.9378 10.3664 43.3752 8.82449 43.3752 5.8785V5.69097C43.3752 4.99626 43.5051 4.38799 43.7657 3.86707C44.0259 3.34615 44.4691 2.86335 45.0968 2.41868C45.7236 1.97401 46.6417 1.63397 47.8503 1.39767C49.0584 1.16093 50.5428 1.043 52.302 1.043H53.1738C54.6884 1.043 56.0078 1.14054 57.1324 1.33472C58.2571 1.52934 59.1406 1.77274 59.7829 2.06445C60.4253 2.35573 60.9378 2.72104 61.3205 3.15817C61.7027 3.59619 61.9512 4.01692 62.0659 4.41947C62.1811 4.82247 62.2382 5.26713 62.2382 5.75348V5.91973H56.4095C56.226 4.86414 55.0247 4.33568 52.8067 4.33568H52.6002C51.2384 4.33568 50.3134 4.44386 49.8238 4.65932C49.3342 4.87478 49.0896 5.19088 49.0896 5.60762C49.0896 6.01017 49.3152 6.32627 49.7662 6.55592C50.2177 6.78513 51.0475 6.9137 52.2561 6.94163L54.666 7.00369C56.2109 7.04581 57.5112 7.18103 58.5665 7.41024C59.6223 7.63944 60.4326 7.96618 60.9988 8.39001C61.5651 8.81385 61.9629 9.2829 62.1923 9.79673C62.4217 10.311 62.5364 10.9153 62.5364 11.61V11.86C62.5364 12.4018 62.4754 12.8917 62.3529 13.3293C62.2304 13.7673 61.9746 14.2257 61.5841 14.7054C61.1941 15.1842 60.6737 15.5876 60.0241 15.9135C59.3734 16.2407 58.4748 16.508 57.3277 16.7159C56.1801 16.9247 54.8261 17.0289 53.266 17.0289H52.6461Z" fill="black"/>
<path d="M52.6461 17.0289C46.3279 17.0289 43.1687 15.2853 43.1687 11.7975V11.61H49.0896C49.2273 12.9582 50.4813 13.6316 52.8531 13.6316H52.9907C54.4893 13.6316 55.4918 13.4826 55.9966 13.1834C56.5013 12.8846 56.7536 12.4922 56.7536 12.0059C56.7536 11.5475 56.5242 11.2003 56.0654 10.964C55.6066 10.7277 54.7192 10.5961 53.4037 10.5677L51.0626 10.5056C45.9378 10.3664 43.3752 8.82449 43.3752 5.8785V5.69097C43.3752 4.99626 43.5051 4.38799 43.7657 3.86707C44.0259 3.34615 44.4691 2.86335 45.0968 2.41868C45.7236 1.97401 46.6417 1.63397 47.8503 1.39767C49.0584 1.16093 50.5428 1.043 52.302 1.043H53.1738C54.6884 1.043 56.0078 1.14054 57.1324 1.33472C58.2571 1.52934 59.1406 1.77274 59.7829 2.06445C60.4253 2.35573 60.9378 2.72104 61.3205 3.15817C61.7027 3.59619 61.9512 4.01692 62.0659 4.41947C62.1811 4.82247 62.2382 5.26713 62.2382 5.75348V5.91973H56.4095C56.226 4.86414 55.0247 4.33568 52.8067 4.33568H52.6002C51.2384 4.33568 50.3134 4.44386 49.8238 4.65932C49.3342 4.87478 49.0896 5.19088 49.0896 5.60762C49.0896 6.01017 49.3152 6.32627 49.7662 6.55592C50.2177 6.78513 51.0475 6.9137 52.2561 6.94163L54.666 7.00369C56.2109 7.04581 57.5112 7.18103 58.5665 7.41024C59.6223 7.63944 60.4326 7.96618 60.9988 8.39001C61.5651 8.81385 61.9629 9.2829 62.1923 9.79673C62.4217 10.311 62.5364 10.9153 62.5364 11.61V11.86C62.5364 12.4018 62.4754 12.8917 62.3529 13.3293C62.2304 13.7673 61.9746 14.2257 61.5841 14.7054C61.1941 15.1842 60.6737 15.5876 60.0241 15.9135C59.3734 16.2407 58.4748 16.508 57.3277 16.7159C56.1801 16.9247 54.8261 17.0289 53.266 17.0289H52.6461Z" fill="black"/>
<path d="M64.6601 1.25124H70.1447V6.8577H79.2086V1.25124H84.6931V16.7575H79.2086V10.7134H70.1447V16.7575H64.6601V1.25124Z" fill="black"/>
<path d="M90.6768 16.7578V14.2777C90.6768 13.6105 90.7456 13.0408 90.8832 12.5687C91.0214 12.0961 91.3191 11.5858 91.7785 11.0365C92.2373 10.4881 92.9675 9.9809 93.9696 9.51496C94.9717 9.04945 96.2609 8.61586 97.8365 8.21243L100.429 7.56648C101.607 7.30269 102.392 7.05221 102.782 6.81635C103.172 6.58005 103.366 6.28789 103.366 5.94076V5.91992C103.366 5.48899 103.137 5.15605 102.678 4.9193C102.219 4.68345 101.371 4.56552 100.131 4.56552C99.3814 4.56552 98.7542 4.64177 98.2495 4.79428C97.7448 4.94723 97.385 5.15915 97.1712 5.43003C96.9564 5.70091 96.8188 5.92701 96.7578 6.10745C96.6963 6.28789 96.6509 6.51089 96.6201 6.77468H90.975V6.62838C90.975 6.14248 91.0287 5.67697 91.1356 5.2323C91.2425 4.78763 91.4763 4.30129 91.8356 3.77327C92.1948 3.2457 92.6693 2.79039 93.2584 2.40823C93.8471 2.02607 94.6769 1.70288 95.7483 1.43865C96.8188 1.17486 98.0659 1.04275 99.4888 1.04275H100.636C102.242 1.04275 103.611 1.16467 104.743 1.40762C105.875 1.65101 106.752 2.00169 107.371 2.46055C107.99 2.91851 108.438 3.42924 108.713 3.99184C108.989 4.55488 109.127 5.19772 109.127 5.91992V6.08662C109.127 7.44811 108.583 8.47666 107.497 9.17137C106.411 9.86608 104.56 10.4291 101.944 10.8596C100.475 11.1238 99.5801 11.2901 99.2594 11.3597C96.6738 11.846 95.3808 12.3324 95.3808 12.8187H109.494V16.7578H90.6768Z" fill="black"/>
<path d="M90.6768 16.7578V14.2777C90.6768 13.6105 90.7456 13.0408 90.8832 12.5687C91.0214 12.0961 91.3191 11.5858 91.7785 11.0365C92.2373 10.4881 92.9675 9.9809 93.9696 9.51496C94.9717 9.04945 96.2609 8.61586 97.8365 8.21243L100.429 7.56648C101.607 7.30269 102.392 7.05221 102.782 6.81635C103.172 6.58005 103.366 6.28789 103.366 5.94076V5.91992C103.366 5.48899 103.137 5.15605 102.678 4.9193C102.219 4.68345 101.371 4.56552 100.131 4.56552C99.3814 4.56552 98.7542 4.64177 98.2495 4.79428C97.7448 4.94723 97.385 5.15915 97.1712 5.43003C96.9564 5.70091 96.8188 5.92701 96.7578 6.10745C96.6963 6.28789 96.6509 6.51089 96.6201 6.77468H90.975V6.62838C90.975 6.14248 91.0287 5.67697 91.1356 5.2323C91.2425 4.78763 91.4763 4.30129 91.8356 3.77327C92.1948 3.2457 92.6693 2.79039 93.2584 2.40823C93.8471 2.02607 94.6769 1.70288 95.7483 1.43865C96.8188 1.17486 98.0659 1.04275 99.4888 1.04275H100.636C102.242 1.04275 103.611 1.16467 104.743 1.40762C105.875 1.65101 106.752 2.00169 107.371 2.46055C107.99 2.91851 108.438 3.42924 108.713 3.99184C108.989 4.55488 109.127 5.19772 109.127 5.91992V6.08662C109.127 7.44811 108.583 8.47666 107.497 9.17137C106.411 9.86608 104.56 10.4291 101.944 10.8596C100.475 11.1238 99.5801 11.2901 99.2594 11.3597C96.6738 11.846 95.3808 12.3324 95.3808 12.8187H109.494V16.7578H90.6768Z" fill="black"/>
<path d="M120.688 5.16947H113.964V1.25124H132.873V5.16947H126.149V16.7575H120.688V5.16947Z" fill="black"/>
<path d="M120.688 5.16947H113.964V1.25124H132.873V5.16947H126.149V16.7575H120.688V5.16947Z" fill="black"/>
<path d="M140.572 7.89987H147.02C148.489 7.89987 149.224 7.40688 149.224 6.42045V6.37878C149.224 5.43402 148.489 4.96142 147.02 4.96142H140.572V7.89987ZM151.22 9.29639C153.79 9.74106 155.075 11.0267 155.075 13.1521V15.1737C155.075 15.8964 155.167 16.3903 155.351 16.6536V16.7578H149.683C149.591 16.6195 149.545 16.2785 149.545 15.7368V14.4444C149.545 13.4438 149.307 12.7389 148.833 12.3293C148.359 11.9196 147.526 11.7139 146.332 11.7139H140.572V16.7578H135.088V1.25156H147.755C148.979 1.25156 150.042 1.342 150.944 1.52244C151.847 1.70288 152.547 1.92544 153.044 2.18967C153.541 2.45345 153.94 2.7833 154.238 3.1792C154.536 3.5751 154.727 3.94352 154.811 4.284C154.895 4.62448 154.937 5.01019 154.937 5.44067V5.62865C154.937 6.60089 154.589 7.40333 153.894 8.03553C153.197 8.66774 152.306 9.08802 151.22 9.29639Z" fill="black"/>
<path d="M140.572 7.89987H147.02C148.489 7.89987 149.224 7.40688 149.224 6.42045V6.37878C149.224 5.43402 148.489 4.96142 147.02 4.96142H140.572V7.89987ZM151.22 9.29639C153.79 9.74106 155.075 11.0267 155.075 13.1521V15.1737C155.075 15.8964 155.167 16.3903 155.351 16.6536V16.7578H149.683C149.591 16.6195 149.545 16.2785 149.545 15.7368V14.4444C149.545 13.4438 149.307 12.7389 148.833 12.3293C148.359 11.9196 147.526 11.7139 146.332 11.7139H140.572V16.7578H135.088V1.25156H147.755C148.979 1.25156 150.042 1.342 150.944 1.52244C151.847 1.70288 152.547 1.92544 153.044 2.18967C153.541 2.45345 153.94 2.7833 154.238 3.1792C154.536 3.5751 154.727 3.94352 154.811 4.284C154.895 4.62448 154.937 5.01019 154.937 5.44067V5.62865C154.937 6.60089 154.589 7.40333 153.894 8.03553C153.197 8.66774 152.306 9.08802 151.22 9.29639Z" fill="black"/>
<path d="M168.674 4.85679L165.874 10.6508H171.542L168.674 4.85679ZM173.217 14.0689H164.199L162.891 16.7578H157.406L165.163 1.25156H172.391L180.4 16.7578H174.548L173.217 14.0689Z" fill="black"/>
<path d="M168.674 4.85679L165.874 10.6508H171.542L168.674 4.85679ZM173.217 14.0689H164.199L162.891 16.7578H157.406L165.163 1.25156H172.391L180.4 16.7578H174.548L173.217 14.0689Z" fill="black"/>
<path d="M188.177 13.0268H191.619C192.659 13.0268 193.558 12.9368 194.316 12.7559C195.073 12.5759 195.654 12.3564 196.06 12.0993C196.465 11.8426 196.786 11.5199 197.023 11.1306C197.26 10.7413 197.409 10.3902 197.471 10.0781C197.532 9.76512 197.563 9.40779 197.563 9.00435V8.87933C197.563 8.50426 197.532 8.16023 197.471 7.84768C197.409 7.53512 197.26 7.19153 197.023 6.81647C196.786 6.44052 196.461 6.1253 196.048 5.86772C195.635 5.61103 195.05 5.39557 194.293 5.22178C193.536 5.04799 192.644 4.9611 191.619 4.9611H188.177V13.0268ZM182.692 1.25124H192.101C193.86 1.25124 195.413 1.40109 196.76 1.69901C198.105 1.99826 199.181 2.37998 199.984 2.84593C200.787 3.31143 201.444 3.87403 201.957 4.53372C202.469 5.19385 202.817 5.84379 203.001 6.48264C203.185 7.12193 203.276 7.8029 203.276 8.5251V9.15021C203.276 14.222 199.559 16.7575 192.124 16.7575H182.692V1.25124Z" fill="black"/>
<path d="M188.177 13.0268H191.619C192.659 13.0268 193.558 12.9368 194.316 12.7559C195.073 12.5759 195.654 12.3564 196.06 12.0993C196.465 11.8426 196.786 11.5199 197.023 11.1306C197.26 10.7413 197.409 10.3902 197.471 10.0781C197.532 9.76512 197.563 9.40779 197.563 9.00435V8.87933C197.563 8.50426 197.532 8.16023 197.471 7.84768C197.409 7.53512 197.26 7.19153 197.023 6.81647C196.786 6.44052 196.461 6.1253 196.048 5.86772C195.635 5.61103 195.05 5.39557 194.293 5.22178C193.536 5.04799 192.644 4.9611 191.619 4.9611H188.177V13.0268ZM182.692 1.25124H192.101C193.86 1.25124 195.413 1.40109 196.76 1.69901C198.105 1.99826 199.181 2.37998 199.984 2.84593C200.787 3.31143 201.444 3.87403 201.957 4.53372C202.469 5.19385 202.817 5.84379 203.001 6.48264C203.185 7.12193 203.276 7.8029 203.276 8.5251V9.15021C203.276 14.222 199.559 16.7575 192.124 16.7575H182.692V1.25124Z" fill="black"/>
<path d="M221.67 1.25124V4.81524H210.747V7.06607H221.326V10.7555H210.747V13.1518H221.808V16.7575H205.309V1.25124H221.67Z" fill="black"/>
<path d="M221.67 1.25124V4.81524H210.747V7.06607H221.326V10.7555H210.747V13.1518H221.808V16.7575H205.309V1.25124H221.67Z" fill="black"/>
</svg>
