<svg width="23" height="17" viewBox="0 0 23 17" fill="none" xmlns="http://www.w3.org/2000/svg">
<path d="M0.167969 0.999999C0.167969 0.447715 0.615684 0 1.16797 0H21.8346C22.3869 0 22.8346 0.447715 22.8346 1V1.83333C22.8346 2.38562 22.3869 2.83333 21.8346 2.83333H1.16797C0.615684 2.83333 0.167969 2.38562 0.167969 1.83333V0.999999ZM5.83464 8.08333C5.83464 7.53105 6.28235 7.08333 6.83464 7.08333H21.8346C22.3869 7.08333 22.8346 7.53105 22.8346 8.08333V8.91667C22.8346 9.46895 22.3869 9.91667 21.8346 9.91667H6.83464C6.28235 9.91667 5.83464 9.46895 5.83464 8.91667V8.08333ZM12.918 15.1667C12.918 14.6144 13.3657 14.1667 13.918 14.1667H21.8346C22.3869 14.1667 22.8346 14.6144 22.8346 15.1667V16C22.8346 16.5523 22.3869 17 21.8346 17H13.918C13.3657 17 12.918 16.5523 12.918 16V15.1667Z" fill="black"/>
</svg>
